<?xml version="1.0" encoding="UTF-8" standalone="no"?><!DOCTYPE svg PUBLIC "-//W3C//DTD SVG 1.1//EN" "http://www.w3.org/Graphics/SVG/1.1/DTD/svg11.dtd"><svg width="100%" height="100%" viewBox="0 0 164 85" version="1.1" xmlns="http://www.w3.org/2000/svg" xmlns:xlink="http://www.w3.org/1999/xlink" xml:space="preserve" xmlns:serif="http://www.serif.com/" style="fill-rule:evenodd;clip-rule:evenodd;stroke-linejoin:round;stroke-miterlimit:2;"><g id="Noeil"><path d="M81.858,84.212c-33.741,0 -63.594,-16.6 -81.858,-42.082c18.264,-25.5 48.117,-42.098 81.858,-42.098c33.742,-0 63.593,16.598 81.857,42.098c-18.264,25.482 -48.115,42.082 -81.857,42.082Z" style="fill:#fff;fill-rule:nonzero;"/><path d="M119.346,42.122c0,20.705 -16.784,37.489 -37.488,37.489c-20.705,-0 -37.489,-16.784 -37.489,-37.489c0,-20.705 16.784,-37.489 37.489,-37.489c20.704,0 37.488,16.784 37.488,37.489Z" style="fill:#e082f2;fill-rule:nonzero;"/><path d="M101.858,42.122c-0,11.046 -8.955,20 -20,20c-11.046,-0 -20,-8.954 -20,-20c-0,-11.046 8.954,-20 20,-20c11.045,-0 20,8.954 20,20Z" style="fill-rule:nonzero;"/><path id="Paupillere" d="M163.715,42.122c-18.264,19.245 -145.451,19.245 -163.715,-0c17.144,-25.415 50.198,-42.97 82.766,-42.09c5.844,0.158 11.863,0.517 17.505,1.541c8.64,1.569 16.71,4.385 24.371,7.97c16.202,7.582 29.687,19.374 39.073,32.579Z" style="fill-rule:nonzero;"/></g></svg>